<?xml version="1.0" encoding="UTF-8"?>
<svg version="1.1" xmlns="http://www.w3.org/2000/svg" width="200" height="200">
<path d="M0 0 C66 0 132 0 200 0 C200 66 200 132 200 200 C134 200 68 200 0 200 C0 134 0 68 0 0 Z " fill="#FEFEFE" transform="translate(0,0)"/>
<path d="M0 0 C1.32 0 2.64 0 4 0 C5.33302502 2.66605004 5.12286972 4.68278373 5.12025452 7.66934204 C5.12232076 9.47453025 5.12232076 9.47453025 5.12442875 11.3161869 C5.12088172 12.66212614 5.11724382 14.00806514 5.11352539 15.35400391 C5.11321919 16.78600754 5.11335232 18.21801132 5.11389065 19.65001488 C5.11411689 23.49322642 5.10831091 27.33640699 5.10128021 31.17961121 C5.09559545 34.78274638 5.09531765 38.38587393 5.09460449 41.98901367 C5.08935213 52.53434657 5.07539104 63.07967367 5.0625 73.625 C5.041875 97.17875 5.02125 120.7325 5 145 C-61 145 -127 145 -195 145 C-195 115.96 -195 86.92 -195 57 C-190.23508033 56.20584672 -186.59198806 55.93876969 -181.8515625 56.12109375 C-180.86547501 56.15651024 -180.86547501 56.15651024 -179.85946655 56.19264221 C-177.7810523 56.26858445 -175.70307808 56.35290183 -173.625 56.4375 C-172.20705204 56.49079048 -170.78908327 56.54353027 -169.37109375 56.59570312 C-165.91379897 56.72410366 -162.45684722 56.86001197 -159 57 C-163.70482324 68.1171327 -168.44879881 79.1888253 -173.6875 90.06640625 C-175.15073014 93.10762252 -175.15073014 93.10762252 -176 97 C-169.565 96.505 -169.565 96.505 -163 96 C-162.12988281 94.04320312 -162.12988281 94.04320312 -161.2421875 92.046875 C-157.02232996 82.59222313 -152.76571304 73.1950228 -148 64 C-147.01 64 -146.02 64 -145 64 C-144.67 62.68 -144.34 61.36 -144 60 C-143.34 60 -142.68 60 -142 60 C-141.896875 58.72125 -141.79375 57.4425 -141.6875 56.125 C-141.51171875 53.9453125 -141.51171875 53.9453125 -141 52 C-140.01 51.34 -139.02 50.68 -138 50 C-137.505 52.97 -137.505 52.97 -137 56 C-132.05621051 56.09975053 -127.11302178 56.17187902 -122.16845703 56.21972656 C-120.49061869 56.23969699 -118.81284864 56.26688332 -117.13525391 56.30175781 C-104.79004333 56.55175016 -95.94477393 56.01106789 -86 48 C-82.6875 47.25 -82.6875 47.25 -80 47 C-78.6387661 55.98846509 -82.21060997 63.04913463 -85.99902344 70.91992188 C-86.97806582 72.95441971 -87.93420147 74.99803477 -88.8828125 77.046875 C-90.0547839 79.5766258 -91.23411505 82.10262484 -92.421875 84.625 C-94.33937982 88.72580239 -96.18175139 92.85439318 -98 97 C-93.38 97 -88.76 97 -84 97 C-83.58177979 95.6895874 -83.16355957 94.3791748 -82.73266602 93.02905273 C-81.18420993 88.3898006 -79.32134341 83.97445773 -77.27734375 79.53515625 C-76.93119522 78.77577255 -76.58504669 78.01638885 -76.22840881 77.23399353 C-75.5037336 75.64739378 -74.7767773 74.06183404 -74.04760742 72.47729492 C-72.93046168 70.04718969 -71.82321706 67.61273865 -70.71679688 65.17773438 C-70.0083962 63.62994105 -69.29943219 62.0824054 -68.58984375 60.53515625 C-68.25959702 59.80813004 -67.92935028 59.08110382 -67.58909607 58.33204651 C-66.28085324 55.50265818 -65.22267716 53.22267716 -63 51 C-61.62437146 52.28965176 -60.29233607 53.62689293 -59 55 C-59 55.66 -59 56.32 -59 57 C-53.91311912 56.95550609 -48.82743957 56.88532281 -43.74121094 56.79248047 C-42.01507182 56.76445245 -40.2888087 56.74314859 -38.5625 56.72900391 C-22.21536579 56.87167787 -22.21536579 56.87167787 -8.5625 48.8125 C-3.93699524 42.6363999 -2.23347666 36.13617027 -3.28125 28.4921875 C-4.34055495 24.81916272 -6.24752539 22.04383597 -8.52734375 19.0078125 C-9.94746184 17.07163027 -10.92978742 15.14042516 -12 13 C-12.99 12.01 -12.99 12.01 -14 11 C-13.34 9.35 -12.68 7.7 -12 6 C-9.03 6.33 -6.06 6.66 -3 7 C-2.67 5.68 -2.34 4.36 -2 3 C-1.34 2.01 -0.68 1.02 0 0 Z " fill="#FEFEFE" transform="translate(195,55)"/>
<path d="M0 0 C4.62 0 9.24 0 14 0 C13.21748103 4.6951138 12.85031965 6.75668977 10.75 10.625 C8.80026323 14.35639279 7.08445973 18.09902003 5.5 22 C4.00231423 25.66514406 2.43325216 29.22804482 0.625 32.75 C-1.42904981 36.76961748 -3.27683821 40.85595679 -5.0625 45 C-8.34151937 52.59579845 -11.78184036 60.11387069 -15.25 67.625 C-15.76957275 68.75164062 -16.28914551 69.87828125 -16.82446289 71.0390625 C-19.14898504 76.06326105 -21.50689075 81.05670317 -24 86 C-28.29 86 -32.58 86 -37 86 C-36.13299284 80.79795704 -34.80877366 76.87534772 -32.62109375 72.1953125 C-32.12380516 71.1093428 -32.12380516 71.1093428 -31.61647034 70.00143433 C-30.56353595 67.70612696 -29.50070221 65.41556651 -28.4375 63.125 C-27.71874071 61.56280365 -27.00063473 60.00030653 -26.28320312 58.4375 C-24.5308707 54.62085921 -22.76520696 50.8108078 -21 47 C-30.57 46.67 -40.14 46.34 -50 46 C-49 42 -49 42 -45 33 C-34.77 33 -24.54 33 -14 33 C-13.34 31.02 -12.68 29.04 -12 27 C-11.42657579 25.66980551 -10.82727514 24.35027667 -10.1953125 23.046875 C-9.69354492 22.00067993 -9.69354492 22.00067993 -9.18164062 20.93334961 C-8.83294922 20.21284424 -8.48425781 19.49233887 -8.125 18.75 C-5.17493782 12.57847525 -2.43669094 6.39631371 0 0 Z " fill="#2931E4" transform="translate(56,66)"/>
<path d="M0 0 C4.62 0 9.24 0 14 0 C12.04128631 6.73307831 9.25582086 12.87338807 6.24047852 19.17944336 C3.89504354 24.08792018 1.62752785 29.02035704 -0.5625 34 C-5.19108772 44.5040307 -9.96194494 54.94329325 -14.72094727 65.38867188 C-17.84432404 72.24585217 -20.95681456 79.1067239 -24 86 C-28.62 86 -33.24 86 -38 86 C-37.28895957 82.44479786 -36.74808238 80.08998357 -35.328125 76.92578125 C-34.99603027 76.18102539 -34.66393555 75.43626953 -34.32177734 74.66894531 C-33.96809082 73.89131836 -33.6144043 73.11369141 -33.25 72.3125 C-32.88729004 71.50522461 -32.52458008 70.69794922 -32.15087891 69.86621094 C-29.95180774 65.00180675 -27.639176 60.2151432 -25.203125 55.46484375 C-23.15776361 51.27450922 -21.3994858 46.9608424 -19.58203125 42.66796875 C-17.79284513 38.51970759 -15.898077 34.42936526 -13.97290039 30.34277344 C-10.95811215 23.93645125 -8.00947851 17.50025315 -5.0625 11.0625 C-4.56532471 9.97662598 -4.06814941 8.89075195 -3.5559082 7.77197266 C-2.37018458 5.18150772 -1.18503092 2.5907819 0 0 Z " fill="#2832DC" transform="translate(135,66)"/>
<path d="M0 0 C6.61346657 1.32269331 12.49520944 4.90333848 16.5 10.375 C20.09962088 16.52919053 20.49331394 23.06831401 18.90625 30.01171875 C16.66467295 36.40752284 13.32515643 40.50124583 7.4140625 43.79296875 C1.88388677 46.29575579 -2.99620794 46.96505634 -9.0234375 46.8828125 C-9.81400543 46.8799826 -10.60457336 46.87715271 -11.4190979 46.87423706 C-13.92539084 46.86310955 -16.43131645 46.83801926 -18.9375 46.8125 C-20.64452606 46.80246058 -22.35155777 46.79333641 -24.05859375 46.78515625 C-28.2267024 46.76319463 -32.39453908 46.72871671 -36.5625 46.6875 C-35.97145235 41.84090923 -34.58305843 38.08001833 -32.5625 33.6875 C-31.55872314 33.68339111 -30.55494629 33.67928223 -29.52075195 33.67504883 C-25.78358156 33.65321688 -22.04745799 33.59888706 -18.31079102 33.53491211 C-16.69598451 33.51176714 -15.08102779 33.49734457 -13.46606445 33.49194336 C-11.13918852 33.48262726 -8.81466324 33.44158632 -6.48828125 33.39453125 C-5.77037918 33.3984639 -5.05247711 33.40239655 -4.31282043 33.40644836 C-0.3832264 33.29298926 1.30293736 32.79690513 4.39135742 30.28588867 C7.0810338 26.87027888 7.18260492 25.03834767 6.91015625 20.83984375 C6.09613771 17.13303203 4.54081098 15.77748495 1.4375 13.6875 C-1.53226308 12.74392979 -4.48155795 12.13722357 -7.5625 11.6875 C-4.38472222 1.17638889 -4.38472222 1.17638889 0 0 Z " fill="#2B33D7" transform="translate(94.5625,65.3125)"/>
<path d="M0 0 C6.06217098 0.26942982 10.25742229 0.88976599 15 5 C20.32320737 10.98701261 23.28367556 16.14264376 23 24.3125 C22.17220885 31.5458179 18.67259643 36.32740357 13.625 41.375 C7.18744427 45.36015355 1.53238066 46.44230327 -5.875 46.29296875 C-6.68493408 46.28872391 -7.49486816 46.28447906 -8.3293457 46.28010559 C-10.88658561 46.26346944 -13.44300304 46.22584772 -16 46.1875 C-17.74608227 46.1724336 -19.49217705 46.15874864 -21.23828125 46.14648438 C-25.49249875 46.11361566 -29.7461105 46.0619406 -34 46 C-33.54554036 44.58208592 -33.08625056 43.16571954 -32.625 41.75 C-32.36976563 40.96109375 -32.11453125 40.1721875 -31.8515625 39.359375 C-31.04826333 37.13372042 -30.10288338 35.09068328 -29 33 C-28.02651611 32.9906543 -27.05303223 32.98130859 -26.05004883 32.97167969 C-22.4247528 32.93168908 -18.80029737 32.86590675 -15.17553711 32.79248047 C-13.60924103 32.76432306 -12.04280425 32.74308247 -10.47631836 32.72900391 C-8.21915934 32.70750033 -5.96368261 32.66081811 -3.70703125 32.609375 C-3.01100296 32.60814636 -2.31497467 32.60691772 -1.59785461 32.60565186 C3.17984405 32.46297634 5.63518141 31.37468841 9 28 C10.33578688 25.32842625 10.01951335 23.46849326 9.8125 20.5 C9.75707031 19.5203125 9.70164063 18.540625 9.64453125 17.53125 C9.26313747 14.90570181 9.26313747 14.90570181 7.24609375 13.7265625 C4.92306396 12.97511286 2.64167107 12.36740287 0.25 11.875 C-0.54921875 11.70742187 -1.3484375 11.53984375 -2.171875 11.3671875 C-2.77515625 11.24601562 -3.3784375 11.12484375 -4 11 C-3.39301257 6.87248551 -1.96189209 3.6678852 0 0 Z " fill="#343AD2" transform="translate(170,66)"/>
<path d="M0 0 C4.62 0 9.24 0 14 0 C13.67 1.98 13.34 3.96 13 6 C12.34 4.68 11.68 3.36 11 2 C7.67179946 1.77307724 5.58198664 1.67837581 2.625 3.3125 C0.65317916 4.96970876 0.65317916 4.96970876 1 8 C0.34 8 -0.32 8 -1 8 C-1.18175781 8.78246094 -1.36351562 9.56492187 -1.55078125 10.37109375 C-1.92783203 11.88896484 -1.92783203 11.88896484 -2.3125 13.4375 C-2.55613281 14.44683594 -2.79976562 15.45617187 -3.05078125 16.49609375 C-3.36402344 17.32238281 -3.67726562 18.14867188 -4 19 C-4.99 19.33 -5.98 19.66 -7 20 C-7.92319671 22.69506428 -7.92319671 22.69506428 -8.5 25.875 C-9.88731826 32.72901281 -9.88731826 32.72901281 -13 35 C-13.66 35 -14.32 35 -15 35 C-15.33 36.32 -15.66 37.64 -16 39 C-16.66 39 -17.32 39 -18 39 C-18 41.31 -18 43.62 -18 46 C-17.01 46.495 -17.01 46.495 -16 47 C-16.33 47.99 -16.66 48.98 -17 50 C-19.0625 50.6875 -19.0625 50.6875 -21 51 C-21.103125 51.70125 -21.20625 52.4025 -21.3125 53.125 C-22.09359003 56.39137647 -23.42058743 59.0471852 -25 62 C-25.66 62 -26.32 62 -27 62 C-25.37487159 56.71833268 -23.28976174 52.15196391 -21 47 C-30.57 46.67 -40.14 46.34 -50 46 C-49 42 -49 42 -45 33 C-34.77 33 -24.54 33 -14 33 C-13.34 31.02 -12.68 29.04 -12 27 C-11.42657579 25.66980551 -10.82727514 24.35027667 -10.1953125 23.046875 C-9.69354492 22.00067993 -9.69354492 22.00067993 -9.18164062 20.93334961 C-8.83294922 20.21284424 -8.48425781 19.49233887 -8.125 18.75 C-5.17493782 12.57847525 -2.43669094 6.39631371 0 0 Z " fill="#2931E3" transform="translate(56,66)"/>
<path d="M0 0 C0.99 0.33 1.98 0.66 3 1 C4.3716249 5.1148747 4.73987323 8.70596936 4 13 C2.06827093 16.75648944 -0.05382019 20.36507609 -4.203125 21.71875 C-4.79609375 21.8115625 -5.3890625 21.904375 -6 22 C-6 22.66 -6 23.32 -6 24 C-5.01 24 -4.02 24 -3 24 C-2.01 25.98 -1.02 27.96 0 30 C-4.47891543 32.25310106 -8.68114535 32.25987948 -13.58203125 32.1953125 C-14.39621017 32.1924826 -15.2103891 32.18965271 -16.04924011 32.18673706 C-18.637146 32.17558584 -21.22469958 32.15049083 -23.8125 32.125 C-25.57226061 32.11496365 -27.33202667 32.10583894 -29.09179688 32.09765625 C-33.39466598 32.0756631 -37.69727336 32.04116836 -42 32 C-41.54554036 30.58208592 -41.08625056 29.16571954 -40.625 27.75 C-40.24214844 26.56664062 -40.24214844 26.56664062 -39.8515625 25.359375 C-39.04826333 23.13372042 -38.10288338 21.09068328 -37 19 C-36.02651611 18.9906543 -35.05303223 18.98130859 -34.05004883 18.97167969 C-30.4247528 18.93168908 -26.80029737 18.86590675 -23.17553711 18.79248047 C-21.60924103 18.76432306 -20.04280425 18.74308247 -18.47631836 18.72900391 C-16.21915934 18.70750033 -13.96368261 18.66081811 -11.70703125 18.609375 C-11.01100296 18.60814636 -10.31497467 18.60691772 -9.59785461 18.60565186 C-4.82015595 18.46297634 -2.36481859 17.37468841 1 14 C2.23714895 11.5257021 1.95581362 10.28500667 1.625 7.5625 C1.53476563 6.78003906 1.44453125 5.99757813 1.3515625 5.19140625 C1.03348872 2.83053014 1.03348872 2.83053014 0 0 Z " fill="#323ADB" transform="translate(178,80)"/>
<path d="M0 0 C0.33 0.33 0.66 0.66 1 1 C0.61577388 5.07279689 0.12055529 8.46574118 -2 12 C-2.99 11.67 -3.98 11.34 -5 11 C-5.03738281 11.61488281 -5.07476562 12.22976562 -5.11328125 12.86328125 C-5.17902344 13.67152344 -5.24476562 14.47976562 -5.3125 15.3125 C-5.37050781 16.11300781 -5.42851563 16.91351563 -5.48828125 17.73828125 C-6.0977618 20.43209225 -7.01870246 21.14589687 -9 23 C-10.10174749 25.09224361 -10.10174749 25.09224361 -11 27.375 C-12.44551337 30.7570599 -13.86025279 33.98490166 -16 37 C-16.66 37 -17.32 37 -18 37 C-18 39.31 -18 41.62 -18 44 C-19.98 44 -21.96 44 -24 44 C-24.33 44.99 -24.66 45.98 -25 47 C-23.35 46.34 -21.7 45.68 -20 45 C-20.62759865 47.92879371 -21.58622659 50.36095629 -23 53 C-23.495 51.515 -23.495 51.515 -24 50 C-24.66 50.99 -25.32 51.98 -26 53 C-27.485 53.495 -27.485 53.495 -29 54 C-29 51.66666667 -29 49.33333333 -29 47 C-29.33 47 -29.66 47 -30 47 C-29.88637738 45.5199159 -29.75877092 44.04089926 -29.625 42.5625 C-29.55539063 41.73878906 -29.48578125 40.91507813 -29.4140625 40.06640625 C-29.27742188 39.38449219 -29.14078125 38.70257813 -29 38 C-28.01 37.505 -28.01 37.505 -27 37 C-26.67 36.01 -26.34 35.02 -26 34 C-25.34 34 -24.68 34 -24 34 C-23.67 33.01 -23.34 32.02 -23 31 C-22.34 31 -21.68 31 -21 31 C-21.061875 30.13375 -21.12375 29.2675 -21.1875 28.375 C-20.97339146 24.52104632 -19.98428918 22.28170902 -18 19 C-17.34 18.67 -16.68 18.34 -16 18 C-15.12757089 15.95383439 -15.12757089 15.95383439 -14.4375 13.5625 C-13.06329114 9.12658228 -13.06329114 9.12658228 -12 7 C-11.34 7 -10.68 7 -10 7 C-10.33 5.68 -10.66 4.36 -11 3 C-7.18464006 0.30680475 -4.66478085 -0.42407099 0 0 Z " fill="#2831E0" transform="translate(67,67)"/>
<path d="M0 0 C14.48670757 4.03680982 14.48670757 4.03680982 18.3125 9 C21.71598884 15.05064682 22.02782143 21.65479631 20.43359375 28.39453125 C19.16852166 31.96455144 17.76557692 34.45907779 15 37 C15 35.68 15 34.36 15 33 C13.515 33.495 13.515 33.495 12 34 C12.03480469 33.06027344 12.03480469 33.06027344 12.0703125 32.1015625 C12.08835937 31.28429687 12.10640625 30.46703125 12.125 29.625 C12.14820312 28.81289062 12.17140625 28.00078125 12.1953125 27.1640625 C12.21370051 24.78657757 12.21370051 24.78657757 10 23 C9.796875 20.9765625 9.796875 20.9765625 9.75 18.625 C9.40332282 14.76821642 9.31707147 14.28104062 6.25 11.5625 C3.52546196 10.25262594 0.85033929 9.0060021 -2 8 C-2 7.01 -2 6.02 -2 5 C-1.34 5 -0.68 5 0 5 C-0.2784375 4.0409375 -0.2784375 4.0409375 -0.5625 3.0625 C-0.7790625 2.0415625 -0.7790625 2.0415625 -1 1 C-0.67 0.67 -0.34 0.34 0 0 Z M13 17 C13 19.31 13 21.62 13 24 C13.66 24 14.32 24 15 24 C15 21.69 15 19.38 15 17 C14.34 17 13.68 17 13 17 Z " fill="#2F36D4" transform="translate(93,67)"/>
<path d="M0 0 C0.33 0.66 0.66 1.32 1 2 C0.36669922 3.88842773 0.36669922 3.88842773 -0.6953125 6.18359375 C-1.27140259 7.44417603 -1.27140259 7.44417603 -1.85913086 8.73022461 C-2.48573608 10.07032593 -2.48573608 10.07032593 -3.125 11.4375 C-3.54080322 12.34314697 -3.95660645 13.24879395 -4.38500977 14.18188477 C-5.58371319 16.79088252 -6.79146274 19.39554724 -8 22 C-8.98147029 24.14478067 -9.96124935 26.29033845 -10.9375 28.4375 C-11.29714844 29.21996094 -11.65679687 30.00242188 -12.02734375 30.80859375 C-13.0796338 33.17941592 -14.03666441 35.59166102 -15 38 C-19.62 38 -24.24 38 -29 38 C-27.95494019 32.77470096 -26.22552809 28.57374405 -24.0625 23.75 C-23.52206055 22.50863281 -23.52206055 22.50863281 -22.97070312 21.2421875 C-22.62072266 20.45585937 -22.27074219 19.66953125 -21.91015625 18.859375 C-21.59183838 18.14233398 -21.27352051 17.42529297 -20.94555664 16.68652344 C-20 15 -20 15 -18 14 C-15 19.75 -15 19.75 -15 22 C-11.37206002 20.13433512 -11.37206002 20.13433512 -9 17 C-8.34 17 -7.68 17 -7 17 C-6.83564453 16.14728516 -6.83564453 16.14728516 -6.66796875 15.27734375 C-5.62201699 10.18364373 -4.32991633 5.65983267 -2 1 C-1.34 0.67 -0.68 0.34 0 0 Z " fill="#2C34D9" transform="translate(126,114)"/>
<path d="M0 0 C3.81051702 0.67244418 7.40215196 1.56086078 11 3 C11.99 4.485 11.99 4.485 13 6 C13.99 6.33 14.98 6.66 16 7 C16.33 7.99 16.66 8.98 17 10 C15.68 10.33 14.36 10.66 13 11 C13.350625 11.825 13.70125 12.65 14.0625 13.5 C15.22335775 17.83386892 14.75705178 20.60909969 14 25 C13.34 25 12.68 25 12 25 C12.33 26.32 12.66 27.64 13 29 C12.34 29 11.68 29 11 29 C11 29.66 11 30.32 11 31 C10.01 31.33 9.02 31.66 8 32 C7.08571661 33.90708843 7.08571661 33.90708843 7 36 C7.66 36.66 8.32 37.32 9 38 C8.34 39.32 7.68 40.64 7 42 C5.5 40.6875 5.5 40.6875 4 39 C4 38.01 4 37.02 4 36 C3.01 36 2.02 36 1 36 C1 35.34 1 34.68 1 34 C1.556875 33.814375 2.11375 33.62875 2.6875 33.4375 C6.1419224 31.29015634 8.26703538 28.68081685 10 25 C10.63743883 20.72915982 10.36271973 17.0881592 9 13 C7.66923011 12.65657551 6.33568021 12.32380126 5 12 C4.34 11.01 3.68 10.02 3 9 C0.43717258 8.27034634 0.43717258 8.27034634 -2 8 C-2.33 7.01 -2.66 6.02 -3 5 C-2.34 5 -1.68 5 -1 5 C-0.67 3.35 -0.34 1.7 0 0 Z M15 12 C15.33 12 15.66 12 16 12 C16 13.65 16 15.3 16 17 C15.67 17 15.34 17 15 17 C15 15.35 15 13.7 15 12 Z " fill="#2C33E3" transform="translate(171,68)"/>
<path d="M0 0 C3.407849 2.41389304 4.75297335 3.83897476 5.625 7.9375 C4.75697586 12.19081827 3.22341676 14.11949992 0 17 C-3.5 17.6875 -3.5 17.6875 -7 17 C-9.93052231 15.00475077 -11.64521503 13.57163515 -12.4453125 10.02734375 C-12.63302621 6.67978256 -12.22285193 4.37141988 -10.5 1.5 C-7.01402996 -0.59158203 -3.89784294 -0.8876276 0 0 Z " fill="#2C34CF" transform="translate(191,42)"/>
<path d="M0 0 C3.64768008 0.87227132 5.003362 2.35372642 6.9765625 5.47265625 C7.38501864 9.63745015 6.96770116 13.16435322 4.4140625 16.53515625 C0.86138536 17.90157054 -2.27967853 18.27817816 -6.0234375 17.47265625 C-9.28448075 14.78229557 -9.9268946 13.14845652 -10.5234375 8.97265625 C-9.58989554 2.43786254 -6.88760363 -0.50302723 0 0 Z " fill="#2832D5" transform="translate(110.0234375,41.52734375)"/>
<path d="M0 0 C0.30751065 5.22768101 -0.32642192 7.61533195 -3 12 C-3.38066848 14.06850708 -3.38066848 14.06850708 -3.5625 16.25 C-3.706875 17.4875 -3.85125 18.725 -4 20 C-4.66 20.33 -5.32 20.66 -6 21 C-6.33 21.99 -6.66 22.98 -7 24 C-8.32 24 -9.64 24 -11 24 C-10.67 25.32 -10.34 26.64 -10 28 C-10.66 28.33 -11.32 28.66 -12 29 C-12.66 28.67 -13.32 28.34 -14 28 C-14.51953125 25.453125 -14.51953125 25.453125 -14.8125 22.25 C-14.92207031 21.20328125 -15.03164062 20.1565625 -15.14453125 19.078125 C-14.97774617 15.52605361 -14.16484716 13.79001782 -12 11 C-11.34 11 -10.68 11 -10 11 C-9.690625 9.865625 -9.38125 8.73125 -9.0625 7.5625 C-7.87840964 3.59231467 -7.73874274 3.73874274 -5 1 C-2 0 -2 0 0 0 Z " fill="#2732DF" transform="translate(142,71)"/>
<path d="M0 0 C-1.32 0.33 -2.64 0.66 -4 1 C-3.505 1.99 -3.505 1.99 -3 3 C-1.68 3 -0.36 3 1 3 C1 3.99 1 4.98 1 6 C-0.65 6 -2.3 6 -4 6 C-4 5.34 -4 4.68 -4 4 C-15.22 4.33 -26.44 4.66 -38 5 C-38.33 4.34 -38.66 3.68 -39 3 C-38.34 3 -37.68 3 -37 3 C-37 2.34 -37 1.68 -37 1 C-37.66 0.67 -38.32 0.34 -39 0 C-33.66871446 -1.77709518 -27.90926325 -1.43371705 -22.3215332 -1.61254883 C-20.07383496 -1.68712392 -17.82715019 -1.77782025 -15.58007812 -1.86914062 C-14.14847086 -1.91766103 -12.71683058 -1.96521897 -11.28515625 -2.01171875 C-9.98457275 -2.05772217 -8.68398926 -2.10372559 -7.34399414 -2.15112305 C-4.20665277 -2.00933913 -2.59652914 -1.67972084 0 0 Z " fill="#2932E3" transform="translate(100,102)"/>
<path d="M0 0 C4.62 0 9.24 0 14 0 C11.60292686 8.17824952 7.91141228 15.46651278 4 23 C3.67 23 3.34 23 3 23 C2.66335783 18.17479555 3.52938307 16.05181177 6 12 C6.71923208 8.30476048 6.71923208 8.30476048 7 5 C4.50447516 5.78130071 4.50447516 5.78130071 2 7 C1.67 7.99 1.34 8.98 1 10 C0.01 10.495 0.01 10.495 -1 11 C-1.72159424 12.64363134 -2.39351421 14.31050386 -3 16 C-3.66 16 -4.32 16 -5 16 C-5.99 18.475 -5.99 18.475 -7 21 C-7.66 20.67 -8.32 20.34 -9 20 C-6.03 13.4 -3.06 6.8 0 0 Z " fill="#2D32E3" transform="translate(135,66)"/>
<path d="M0 0 C4.62 0 9.24 0 14 0 C13.67 1.98 13.34 3.96 13 6 C12.34 4.68 11.68 3.36 11 2 C7.67179946 1.77307724 5.58198664 1.67837581 2.625 3.3125 C0.65317916 4.96970876 0.65317916 4.96970876 1 8 C0.34 8 -0.32 8 -1 8 C-1.18175781 8.78246094 -1.36351562 9.56492187 -1.55078125 10.37109375 C-1.92783203 11.88896484 -1.92783203 11.88896484 -2.3125 13.4375 C-2.55613281 14.44683594 -2.79976562 15.45617187 -3.05078125 16.49609375 C-3.36402344 17.32238281 -3.67726562 18.14867188 -4 19 C-4.99 19.33 -5.98 19.66 -7 20 C-7.92319671 22.69506428 -7.92319671 22.69506428 -8.5 25.875 C-9.90302844 32.80662862 -9.90302844 32.80662862 -13 35 C-16.1862793 35.34057617 -16.1862793 35.34057617 -20.07421875 35.29296875 C-20.7580513 35.28872391 -21.44188385 35.28447906 -22.1464386 35.28010559 C-24.32719561 35.26333353 -26.50702309 35.22568657 -28.6875 35.1875 C-30.16730435 35.17245114 -31.6471232 35.15876308 -33.12695312 35.14648438 C-36.75160336 35.11343569 -40.37571094 35.06166446 -44 35 C-44.66 36.98 -45.32 38.96 -46 41 C-46.66 40.67 -47.32 40.34 -48 40 C-47.01 37.69 -46.02 35.38 -45 33 C-34.77 33 -24.54 33 -14 33 C-13.34 31.02 -12.68 29.04 -12 27 C-11.42657579 25.66980551 -10.82727514 24.35027667 -10.1953125 23.046875 C-9.69354492 22.00067993 -9.69354492 22.00067993 -9.18164062 20.93334961 C-8.83294922 20.21284424 -8.48425781 19.49233887 -8.125 18.75 C-5.17493782 12.57847525 -2.43669094 6.39631371 0 0 Z " fill="#4B4ECA" transform="translate(56,66)"/>
<path d="M0 0 C0.66 0 1.32 0 2 0 C1.34309381 3.78239671 0.279869 7.21841526 -1.0625 10.8125 C-1.42472656 11.78832031 -1.78695312 12.76414062 -2.16015625 13.76953125 C-2.43730469 14.50558594 -2.71445313 15.24164063 -3 16 C-3.66 16 -4.32 16 -5 16 C-5.99 18.475 -5.99 18.475 -7 21 C-8.32 21 -9.64 21 -11 21 C-13.17457267 18.12645755 -14 16.63563409 -14 13 C-13.34 13 -12.68 13 -12 13 C-12 12.01 -12 11.02 -12 10 C-11.34 9.67 -10.68 9.34 -10 9 C-9.8453125 7.5459375 -9.8453125 7.5459375 -9.6875 6.0625 C-9.460625 5.051875 -9.23375 4.04125 -9 3 C-6.4375 1.625 -6.4375 1.625 -4 1 C-3.67 1.66 -3.34 2.32 -3 3 C-2.01 2.67 -1.02 2.34 0 2 C0 1.34 0 0.68 0 0 Z " fill="#2931E2" transform="translate(122,115)"/>
<path d="M0 0 C0.99 0.33 1.98 0.66 3 1 C0.46952476 7.45148838 -2.19572251 13.81612372 -5.0625 20.125 C-5.43882568 20.95741211 -5.81515137 21.78982422 -6.20288086 22.64746094 C-11.09497328 33.44996325 -16.04658246 44.22551477 -21 55 C-21.33 55 -21.66 55 -22 55 C-21.91266424 53.39482903 -21.80447776 51.79078338 -21.6875 50.1875 C-21.62949219 49.29417969 -21.57148437 48.40085938 -21.51171875 47.48046875 C-20.9212561 44.61830249 -20.09884719 43.92751272 -18 42 C-17.25613932 39.69011685 -16.57809297 37.35684056 -16 35 C-17.32 35.66 -18.64 36.32 -20 37 C-20 33 -20 33 -19 32 C-17.33382885 31.95936168 -15.66611905 31.957279 -14 32 C-13.67 30.02 -13.34 28.04 -13 26 C-12.34 26 -11.68 26 -11 26 C-10.896875 25.4225 -10.79375 24.845 -10.6875 24.25 C-10 22 -10 22 -8.5625 20.1875 C-6.75486467 17.92191091 -6.75486467 17.92191091 -6 14.375 C-5 11 -5 11 -2 9 C-1.20562077 6.81494871 -1.20562077 6.81494871 -0.8125 4.375 C-0.57466797 3.14910156 -0.57466797 3.14910156 -0.33203125 1.8984375 C-0.16767578 0.95871094 -0.16767578 0.95871094 0 0 Z " fill="#353ACD" transform="translate(62,78)"/>
<path d="M0 0 C0.94314127 3.41610225 1.08065117 6.45134864 1 10 C0.37609375 10.22429687 -0.2478125 10.44859375 -0.890625 10.6796875 C-3.72331159 12.45273948 -3.93255443 13.93696227 -4.75 17.125 C-4.99234375 18.03507812 -5.2346875 18.94515625 -5.484375 19.8828125 C-5.73960938 20.93082031 -5.73960938 20.93082031 -6 22 C-5.01 22 -4.02 22 -3 22 C-3 21.01 -3 20.02 -3 19 C-1.68 19 -0.36 19 1 19 C1 19.99 1 20.98 1 22 C1.66 22 2.32 22 3 22 C3 20.35 3 18.7 3 17 C3.66 16.67 4.32 16.34 5 16 C5 13.69 5 11.38 5 9 C6.32 9 7.64 9 9 9 C9.33 7.68 9.66 6.36 10 5 C10.66 5 11.32 5 12 5 C9.99712886 11.74137115 7.24984652 17.76380803 4 24 C-0.29 24 -4.58 24 -9 24 C-8.28371422 19.7022853 -7.8530841 17.20199375 -6.15234375 13.4765625 C-5.79462891 12.68378906 -5.43691406 11.89101562 -5.06835938 11.07421875 C-4.50858398 9.86185547 -4.50858398 9.86185547 -3.9375 8.625 C-3.56044922 7.79355469 -3.18339844 6.96210938 -2.79492188 6.10546875 C-1.86956644 4.06734412 -0.9378163 2.0324133 0 0 Z " fill="#3539C8" transform="translate(28,128)"/>
<path d="M0 0 C1.58624235 0.42683239 3.1689098 0.86696158 4.75 1.3125 C6.07257813 1.67794922 6.07257813 1.67794922 7.421875 2.05078125 C10.05772505 3.02125331 11.85407326 4.21005644 14 6 C13.814375 6.78375 13.62875 7.5675 13.4375 8.375 C12.74037734 10.97089775 12.74037734 10.97089775 14 13 C13.5625 15.125 13.5625 15.125 13 17 C9.8901291 15.96337637 9.18055324 15.26777536 7 13 C4.16524351 10.63770293 1.46862651 9.25255957 -2 8 C-2 7.01 -2 6.02 -2 5 C-1.34 5 -0.68 5 0 5 C-0.2784375 4.0409375 -0.2784375 4.0409375 -0.5625 3.0625 C-0.7790625 2.0415625 -0.7790625 2.0415625 -1 1 C-0.67 0.67 -0.34 0.34 0 0 Z " fill="#2731DC" transform="translate(93,67)"/>
<path d="M0 0 C0.66 0 1.32 0 2 0 C1.67 0.99 1.34 1.98 1 3 C1.78125244 2.96447021 2.56250488 2.92894043 3.36743164 2.89233398 C6.93219275 2.73401176 10.49730302 2.58566878 14.0625 2.4375 C15.29162109 2.38142578 16.52074219 2.32535156 17.78710938 2.26757812 C23.6672919 2.0298349 29.21603075 1.83976843 35 3 C35.495 4.98 35.495 4.98 36 7 C34.02 7 32.04 7 30 7 C30 6.67 30 6.34 30 6 C21.09 5.67 12.18 5.34 3 5 C3 5.66 3 6.32 3 7 C12.9 7.33 22.8 7.66 33 8 C33 8.33 33 8.66 33 9 C21.12 9 9.24 9 -3 9 C-2 3 -2 3 0 0 Z " fill="#434EDE" transform="translate(61,103)"/>
<path d="M0 0 C0.33 0 0.66 0 1 0 C1 2.31 1 4.62 1 7 C0.34 7 -0.32 7 -1 7 C-1.66 10.3 -2.32 13.6 -3 17 C-3.99 17.33 -4.98 17.66 -6 18 C-6.55302318 19.9843773 -7.09694951 21.97374688 -7.52734375 23.98828125 C-8.04671201 26.19881556 -8.85695509 28.04049443 -10 30 C-10.66 30 -11.32 30 -12 30 C-12 31.98 -12 33.96 -12 36 C-13.485 36.495 -13.485 36.495 -15 37 C-15 37.99 -15 38.98 -15 40 C-15.66 40 -16.32 40 -17 40 C-12.71788233 26.2020653 -6.4570992 12.9141984 0 0 Z " fill="#393FC3" transform="translate(125,88)"/>
<path d="M0 0 C1.67542976 0.28604898 3.34385343 0.61781233 5 1 C4.01 1.495 4.01 1.495 3 2 C3 2.99 3 3.98 3 5 C3.66 5.33 4.32 5.66 5 6 C3.68 8.97 2.36 11.94 1 15 C0.67 15 0.34 15 0 15 C-0.33 13.35 -0.66 11.7 -1 10 C-1.99 12.97 -2.98 15.94 -4 19 C-4.66 19 -5.32 19 -6 19 C-6.33 20.32 -6.66 21.64 -7 23 C-7.99 22.67 -8.98 22.34 -10 22 C-8.5247255 18.51917004 -7.04413293 15.04062769 -5.5625 11.5625 C-5.14162109 10.56927734 -4.72074219 9.57605469 -4.28710938 8.55273438 C-3.88427734 7.60849609 -3.48144531 6.66425781 -3.06640625 5.69140625 C-2.69459229 4.81685791 -2.32277832 3.94230957 -1.93969727 3.04125977 C-1 1 -1 1 0 0 Z " fill="#E9EBFB" transform="translate(57,96)"/>
<path d="M0 0 C2.5 0.75 2.5 0.75 5.5 2.75 C6.20052461 5.413063 6.27744818 7.99035737 6.5 10.75 C5.18 11.08 3.86 11.41 2.5 11.75 C1.51 9.77 0.52 7.79 -0.5 5.75 C-0.83 6.74 -1.16 7.73 -1.5 8.75 C-3.81 8.09 -6.12 7.43 -8.5 6.75 C-4.51995012 -0.45199501 -4.51995012 -0.45199501 0 0 Z " fill="#2A31DC" transform="translate(109.5,43.25)"/>
<path d="M0 0 C4.48986797 0.8471449 7.62758482 3.00627855 11.3125 5.625 C8.21374328 5.625 6.06828485 5.04238748 3.125 4.125 C2.22394531 3.8465625 1.32289062 3.568125 0.39453125 3.28125 C-0.29253906 3.0646875 -0.97960937 2.848125 -1.6875 2.625 C-1.6875 3.945 -1.6875 5.265 -1.6875 6.625 C-2.3475 6.625 -3.0075 6.625 -3.6875 6.625 C-3.3575 7.615 -3.0275 8.605 -2.6875 9.625 C-1.03758418 10.33210678 0.6332762 10.99062656 2.3125 11.625 C5.5625 13 5.5625 13 8.3125 15.625 C9.25263359 19.62603363 9.59951093 23.52313541 9.3125 27.625 C8.6525 28.285 7.9925 28.945 7.3125 29.625 C6.10635719 27.21271439 6.36549331 25.97656774 6.5625 23.3125 C6.57973332 19.73945793 6.4256856 18.79660397 4.375 15.6875 C0.48565879 13.06814775 -3.09773229 12.29496609 -7.6875 11.625 C-4.48854712 1.04384817 -4.48854712 1.04384817 0 0 Z " fill="#3D3FBD" transform="translate(94.6875,65.375)"/>
<path d="M0 0 C6.86545966 0.30513154 11.59934151 1.32045153 16.4765625 6.59765625 C17.69081186 8.03236988 18.85073815 9.51271996 20 11 C19.01 11 18.02 11 17 11 C17 10.34 17 9.68 17 9 C16.0409375 8.8453125 16.0409375 8.8453125 15.0625 8.6875 C14.381875 8.460625 13.70125 8.23375 13 8 C12.67 7.01 12.34 6.02 12 5 C10.02 5 8.04 5 6 5 C5.67 4.34 5.34 3.68 5 3 C3.68 2.67 2.36 2.34 1 2 C0.34 4.64 -0.32 7.28 -1 10 C0.65 10 2.3 10 4 10 C4.33 10.66 4.66 11.32 5 12 C2.03 11.67 -0.94 11.34 -4 11 C-3.39301257 6.87248551 -1.96189209 3.6678852 0 0 Z " fill="#393CC3" transform="translate(170,66)"/>
<path d="M0 0 C0.33 0.66 0.66 1.32 1 2 C8.92 1.67 16.84 1.34 25 1 C25 0.67 25 0.34 25 0 C27.25 -0.25 27.25 -0.25 30 0 C32.3125 2 32.3125 2 34 4 C33.67 4.99 33.34 5.98 33 7 C30.9375 7.6875 30.9375 7.6875 29 8 C28.896875 8.70125 28.79375 9.4025 28.6875 10.125 C27.90640997 13.39137647 26.57941257 16.0471852 25 19 C24.34 19 23.68 19 23 19 C24.62512841 13.71833268 26.71023826 9.15196391 29 4 C19.43 3.67 9.86 3.34 0 3 C0 2.01 0 1.02 0 0 Z " fill="#575BDC" transform="translate(6,109)"/>
<path d="M0 0 C4.62 0 9.24 0 14 0 C13.34 1.98 12.68 3.96 12 6 C11.67 6 11.34 6 11 6 C11 4.35 11 2.7 11 1 C6.545 1.495 6.545 1.495 2 2 C1.34 3.98 0.68 5.96 0 8 C0.66 8.33 1.32 8.66 2 9 C1.01 9.66 0.02 10.32 -1 11 C-2.20450304 13.55183404 -2.20450304 13.55183404 -3 16 C-3.66 16 -4.32 16 -5 16 C-5.99 18.475 -5.99 18.475 -7 21 C-7.66 20.67 -8.32 20.34 -9 20 C-6.03 13.4 -3.06 6.8 0 0 Z " fill="#363BD2" transform="translate(135,66)"/>
<path d="M0 0 C0.66 0.99 1.32 1.98 2 3 C0.68 2.67 -0.64 2.34 -2 2 C-3.89865603 4.97180943 -5.35455571 7.51460083 -6 11 C-3.69 11 -1.38 11 1 11 C1 11.66 1 12.32 1 13 C-2.25 13.75 -2.25 13.75 -6 14 C-8.5 12.4375 -8.5 12.4375 -10 10 C-9.75 6.75 -9.75 6.75 -9 4 C-9.66 3.67 -10.32 3.34 -11 3 C-7.21981549 0.33163446 -4.63908179 -0.61854424 0 0 Z " fill="#2B33E7" transform="translate(190,43)"/>
<path d="M0 0 C11.22 0 22.44 0 34 0 C34 0.66 34 1.32 34 2 C22.78 2.33 11.56 2.66 0 3 C0 2.01 0 1.02 0 0 Z " fill="#5A5CD1" transform="translate(62,99)"/>
<path d="M0 0 C2 3 2 3 1.8125 5.125 C1.544375 5.74375 1.27625 6.3625 1 7 C0.01 7.33 -0.98 7.66 -2 8 C-1.01 9.485 -1.01 9.485 0 11 C0 11.99 0 12.98 0 14 C-0.99 14.33 -1.98 14.66 -3 15 C-3.73323796 17.01508358 -3.73323796 17.01508358 -4 19 C-5.98 18.67 -7.96 18.34 -10 18 C-9.34 16.35 -8.68 14.7 -8 13 C-7.01 13 -6.02 13 -5 13 C-5 12.34 -5 11.68 -5 11 C-4.34 11 -3.68 11 -3 11 C-3.33 9.68 -3.66 8.36 -4 7 C-3.34 7 -2.68 7 -2 7 C-1.855625 6.030625 -1.71125 5.06125 -1.5625 4.0625 C-1 1 -1 1 0 0 Z " fill="#2432D8" transform="translate(187,86)"/>
<path d="M0 0 C0.66 0.33 1.32 0.66 2 1 C1.3459924 6.23206083 -0.39558772 8.79117544 -3 14 C-12.24 14 -21.48 14 -31 14 C-29 12 -29 12 -26.56982422 11.77294922 C-25.07733154 11.78865967 -25.07733154 11.78865967 -23.5546875 11.8046875 C-21.94013672 11.81435547 -21.94013672 11.81435547 -20.29296875 11.82421875 C-19.16503906 11.84097656 -18.03710938 11.85773438 -16.875 11.875 C-15.17150391 11.88853516 -15.17150391 11.88853516 -13.43359375 11.90234375 C-10.62218701 11.92596902 -7.81119702 11.95890987 -5 12 C-4.34 9.03 -3.68 6.06 -3 3 C-2.34 3 -1.68 3 -1 3 C-0.67 2.01 -0.34 1.02 0 0 Z " fill="#ECF2FD" transform="translate(45,85)"/>
<path d="M0 0 C0.99 0.33 1.98 0.66 3 1 C4.61951767 5.85855302 4.88430347 10.29896827 3.27319336 15.2199707 C1.75378166 17.89171526 0.58510901 19.28840287 -2 21 C-8.00611744 21.87133571 -13.84297735 21.43068833 -19.875 21 C-21.53365751 20.9115944 -23.19251832 20.82691898 -24.8515625 20.74609375 C-28.90466843 20.54050404 -32.95166691 20.28404906 -37 20 C-37 19.67 -37 19.34 -37 19 C-36.02651611 18.9906543 -35.05303223 18.98130859 -34.05004883 18.97167969 C-30.4247528 18.93168908 -26.80029737 18.86590675 -23.17553711 18.79248047 C-21.60924103 18.76432306 -20.04280425 18.74308247 -18.47631836 18.72900391 C-16.21915934 18.70750033 -13.96368261 18.66081811 -11.70703125 18.609375 C-11.01100296 18.60814636 -10.31497467 18.60691772 -9.59785461 18.60565186 C-4.82015595 18.46297634 -2.36481859 17.37468841 1 14 C2.23714895 11.5257021 1.95581362 10.28500667 1.625 7.5625 C1.53476563 6.78003906 1.44453125 5.99757813 1.3515625 5.19140625 C1.03348872 2.83053014 1.03348872 2.83053014 0 0 Z " fill="#5E64CA" transform="translate(178,80)"/>
<path d="M0 0 C0.33 0.66 0.66 1.32 1 2 C0.35083008 3.93603516 0.35083008 3.93603516 -0.73046875 6.2890625 C-1.12169922 7.14886719 -1.51292969 8.00867188 -1.91601562 8.89453125 C-2.33560547 9.79558594 -2.75519531 10.69664063 -3.1875 11.625 C-3.58775391 12.50285156 -3.98800781 13.38070312 -4.40039062 14.28515625 C-6.82730961 19.57953704 -9.36644435 24.80553852 -12 30 C-13 28 -13 28 -12.22265625 25.3984375 C-11.83980469 24.40070313 -11.45695312 23.40296875 -11.0625 22.375 C-10.68222656 21.37210938 -10.30195312 20.36921875 -9.91015625 19.3359375 C-9.60980469 18.56507813 -9.30945313 17.79421875 -9 17 C-8.34 17 -7.68 17 -7 17 C-6.83564453 16.14728516 -6.83564453 16.14728516 -6.66796875 15.27734375 C-5.62201699 10.18364373 -4.32991633 5.65983267 -2 1 C-1.34 0.67 -0.68 0.34 0 0 Z " fill="#383BBB" transform="translate(126,114)"/>
<path d="M0 0 C2 2 2 2 2 5 C2.66 5 3.32 5 4 5 C4 5.66 4 6.32 4 7 C10.27 7 16.54 7 23 7 C23 7.33 23 7.66 23 8 C14.09 8 5.18 8 -4 8 C-3.67 6.68 -3.34 5.36 -3 4 C-2.34 4 -1.68 4 -1 4 C-0.67 2.68 -0.34 1.36 0 0 Z " fill="#2930C8" transform="translate(11,103)"/>
<path d="M0 0 C5.28 0 10.56 0 16 0 C15.67 0.99 15.34 1.98 15 3 C10.05 3 5.1 3 0 3 C0.33 3.99 0.66 4.98 1 6 C0.34 6 -0.32 6 -1 6 C-1.33 4.68 -1.66 3.36 -2 2 C-1.34 2 -0.68 2 0 2 C0 1.34 0 0.68 0 0 Z " fill="#2535D8" transform="translate(16,104)"/>
<path d="M0 0 C3.48326597 0.85529699 4.97293913 2.60978164 6.97265625 5.484375 C7.28515625 8.796875 7.28515625 8.796875 6.97265625 11.484375 C5.51202775 8.83698584 4.97265625 7.58989166 4.97265625 4.484375 C1.5849943 2.88257408 1.5849943 2.88257408 -2.08984375 2.609375 C-4.83778243 3.85037956 -6.22905831 5.04384476 -8.02734375 7.484375 C-8.36152304 11.1518963 -8.36152304 11.1518963 -8.02734375 14.484375 C-10.02734375 12.484375 -10.02734375 12.484375 -10.40234375 9.171875 C-9.72334085 2.49501317 -6.969735 -0.46899151 0 0 Z " fill="#383DB7" transform="translate(110.02734375,41.515625)"/>
<path d="M0 0 C0.68707555 2.49064888 1 4.37886292 1 7 C6.94757926 6.86913874 6.94757926 6.86913874 11.5 3.4375 C11.995 2.633125 12.49 1.82875 13 1 C12.125 6.75 12.125 6.75 11 9 C6.38 9 1.76 9 -3 9 C-2.24872886 5.24364431 -1.75994274 3.16789693 0 0 Z " fill="#393CB6" transform="translate(100,143)"/>
<path d="M0 0 C0.66 0 1.32 0 2 0 C2 0.99 2 1.98 2 3 C1.34 3 0.68 3 0 3 C-0.12375 3.9075 -0.2475 4.815 -0.375 5.75 C-1 9 -1 9 -2.0625 10.9375 C-3.43317084 13.95297586 -3.12551466 16.73661871 -3 20 C-4.65 19.67 -6.3 19.34 -8 19 C-7.38516675 16.266235 -6.57072617 13.85825882 -5.37109375 11.328125 C-4.90219727 10.33232422 -4.90219727 10.33232422 -4.42382812 9.31640625 C-4.09833984 8.63449219 -3.77285156 7.95257813 -3.4375 7.25 C-2.9434668 6.20392578 -2.9434668 6.20392578 -2.43945312 5.13671875 C-1.62952288 3.4229533 -0.81519362 1.71126806 0 0 Z " fill="#EAECFB" transform="translate(121,128)"/>
<path d="M0 0 C0.99 0.33 1.98 0.66 3 1 C1.35433477 6.68502535 -1.29032784 11.76681636 -4 17 C-4.33 17 -4.66 17 -5 17 C-5.33337803 12.22158155 -4.55194066 9.98102743 -2 6 C-1.62331656 4.34259285 -1.27942455 2.67654729 -1 1 C-0.67 0.67 -0.34 0.34 0 0 Z " fill="#3539CA" transform="translate(143,72)"/>
<path d="M0 0 C0.268125 0.639375 0.53625 1.27875 0.8125 1.9375 C1.88667752 4.33131686 1.88667752 4.33131686 5 5 C4.01 5.495 4.01 5.495 3 6 C3 6.66 3 7.32 3 8 C2.34 8 1.68 8 1 8 C0.67 9.65 0.34 11.3 0 13 C-1.32 13 -2.64 13 -4 13 C-3.45276317 9.62537285 -2.9451 7.91765 -1 5 C-0.61500109 3.34450469 -0.27206865 1.6777567 0 0 Z " fill="#2432D6" transform="translate(30,131)"/>
<path d="M0 0 C1.09716797 1.74316406 1.09716797 1.74316406 2 4 C1.49267578 6.01464844 1.49267578 6.01464844 0.4453125 8.109375 C0.07792969 8.86347656 -0.28945313 9.61757812 -0.66796875 10.39453125 C-1.26544922 11.56048828 -1.26544922 11.56048828 -1.875 12.75 C-2.46087891 13.93916016 -2.46087891 13.93916016 -3.05859375 15.15234375 C-4.02515358 17.10903803 -5.00580848 19.05723951 -6 21 C-6.33 21 -6.66 21 -7 21 C-6.91266424 19.39482903 -6.80447776 17.79078338 -6.6875 16.1875 C-6.62949219 15.29417969 -6.57148437 14.40085937 -6.51171875 13.48046875 C-5.9187575 10.60619093 -5.1075187 9.93891721 -3 8 C-2.01371583 5.96922316 -2.01371583 5.96922316 -1.3125 3.8125 C-1.06113281 3.09707031 -0.80976562 2.38164063 -0.55078125 1.64453125 C-0.36902344 1.10183594 -0.18726563 0.55914062 0 0 Z " fill="#3D42C8" transform="translate(47,112)"/>
<path d="M0 0 C0.66 0 1.32 0 2 0 C1.67 1.98 1.34 3.96 1 6 C0.34 6 -0.32 6 -1 6 C-1 6.99 -1 7.98 -1 9 C-1.66 9 -2.32 9 -3 9 C-2.896875 9.886875 -2.79375 10.77375 -2.6875 11.6875 C-3.09498572 16.00684858 -4.7722703 17.25642975 -8 20 C-5.84250519 13.0862098 -3.24027968 6.48055936 0 0 Z " fill="#DBE1FD" transform="translate(141,84)"/>
<path d="M0 0 C0.66 0.66 1.32 1.32 2 2 C0.35 6.29 -1.3 10.58 -3 15 C-6 11 -6 11 -5.6875 7.25 C-5.3471875 5.64125 -5.3471875 5.64125 -5 4 C-4.34 4 -3.68 4 -3 4 C-2.67 3.34 -2.34 2.68 -2 2 C-1.34 1.34 -0.68 0.68 0 0 Z " fill="#ECEDF9" transform="translate(22,137)"/>
<path d="M0 0 C0.99 0.495 0.99 0.495 2 1 C2 1.66 2 2.32 2 3 C8.28908482 2.47519999 8.28908482 2.47519999 14 0 C13.67 1.32 13.34 2.64 13 4 C12.34 4 11.68 4 11 4 C10.67 4.66 10.34 5.32 10 6 C8.02 5.34 6.04 4.68 4 4 C4 5.32 4 6.64 4 8 C2.68 8 1.36 8 0 8 C0 5.36 0 2.72 0 0 Z " fill="#EAEEFC" transform="translate(102,56)"/>
<path d="M0 0 C0.33 0 0.66 0 1 0 C1.66 3.3 2.32 6.6 3 10 C3.99 9.67 4.98 9.34 6 9 C4.87548273 11.9719385 3.77706209 14.33440687 2 17 C1.67 14.69 1.34 12.38 1 10 C-0.32 10 -1.64 10 -3 10 C-2.01 6.7 -1.02 3.4 0 0 Z " fill="#E1E4FB" transform="translate(113,93)"/>
<path d="M0 0 C0.66 0.66 1.32 1.32 2 2 C-0.31 7.28 -2.62 12.56 -5 18 C-5.33 18 -5.66 18 -6 18 C-5.67 13.71 -5.34 9.42 -5 5 C-3.68 5 -2.36 5 -1 5 C-0.67 3.35 -0.34 1.7 0 0 Z " fill="#313CC6" transform="translate(136,90)"/>
<path d="M0 0 C3.3721621 0.18042934 4.2090569 0.62204031 7.125 2.6875 C9.125 5.5625 9.125 5.5625 9.6875 8.625 C9.01443111 12.1399153 7.86206304 13.33863628 5.125 15.5625 C6.125 11.5625 6.125 11.5625 6.9375 9.625 C7.34324185 7.33762386 7.34324185 7.33762386 5.5625 4.8125 C3.30079405 2.29955541 3.30079405 2.29955541 0.125 2.125 C-2.67515206 2.53335551 -4.48513983 3.09181682 -6.875 4.5625 C-5.04979532 0.91209065 -4.14068422 0.60106706 0 0 Z " fill="#383EB2" transform="translate(186.875,41.4375)"/>
<path d="M0 0 C0.99 0.66 1.98 1.32 3 2 C1.35 5.3 -0.3 8.6 -2 12 C-2.66 11.34 -3.32 10.68 -4 10 C-3.68770276 8.66158328 -3.35169068 7.32860925 -3 6 C-3.37907282 3.81296615 -3.37907282 3.81296615 -4 2 C-2.68 1.34 -1.36 0.68 0 0 Z " fill="#EFF5FA" transform="translate(109,117)"/>
<path d="M0 0 C2.4375 0.625 2.4375 0.625 5 2 C5.8125 5.125 5.8125 5.125 6 8 C7.32 8 8.64 8 10 8 C10 8.99 10 9.98 10 11 C8.68 11.33 7.36 11.66 6 12 C3.8480563 8.77208445 3.79913557 7.71599191 4 4 C2.35 3.67 0.7 3.34 -1 3 C-0.67 2.01 -0.34 1.02 0 0 Z " fill="#FAFDEE" transform="translate(96,56)"/>
<path d="M0 0 C0.99 0.33 1.98 0.66 3 1 C0.37933326 7.88108028 -2.60752957 14.46532335 -6 21 C-7.33176248 17.00471255 -6.41870859 14.90144863 -5 11 C-4.01 10.34 -3.02 9.68 -2 9 C-1.20562077 6.81494871 -1.20562077 6.81494871 -0.8125 4.375 C-0.65394531 3.55773437 -0.49539062 2.74046875 -0.33203125 1.8984375 C-0.22246094 1.27195312 -0.11289062 0.64546875 0 0 Z " fill="#3A3DBC" transform="translate(62,78)"/>
<path d="M0 0 C2.4375 0.25 2.4375 0.25 5 1 C5.66 1.99 6.32 2.98 7 4 C7.99 4.33 8.98 4.66 10 5 C10.33 5.99 10.66 6.98 11 8 C7.25 9.125 7.25 9.125 5 8 C5.33 7.34 5.66 6.68 6 6 C5.01 6 4.02 6 3 6 C3 5.34 3 4.68 3 4 C2.34 4 1.68 4 1 4 C1 3.34 1 2.68 1 2 C0.34 1.67 -0.32 1.34 -1 1 C-0.67 0.67 -0.34 0.34 0 0 Z " fill="#2B34E4" transform="translate(177,70)"/>
<path d="M0 0 C4.62 0 9.24 0 14 0 C13.34 1.98 12.68 3.96 12 6 C11.67 6 11.34 6 11 6 C11 4.35 11 2.7 11 1 C7.89910366 1.01300166 4.99392117 1.15596903 2 2 C-0.16247221 4.90251302 -0.16247221 4.90251302 -1 8 C-1.66 8 -2.32 8 -3 8 C-1.125 2.25 -1.125 2.25 0 0 Z " fill="#4143B8" transform="translate(135,66)"/>
<path d="M0 0 C0.33 0 0.66 0 1 0 C1 4.29 1 8.58 1 13 C0.67 12.34 0.34 11.68 0 11 C-0.99 11.33 -1.98 11.66 -3 12 C-4.10102197 8.69693408 -3.95067299 7.28414305 -3 4 C-2.34 3.67 -1.68 3.34 -1 3 C-0.67 2.01 -0.34 1.02 0 0 Z " fill="#EEF4F7" transform="translate(199,44)"/>
<path d="M0 0 C0 3.11227195 -0.45627049 5.94152152 -1 9 C-1.99 9.33 -2.98 9.66 -4 10 C-4 9.34 -4 8.68 -4 8 C-5.32 8.33 -6.64 8.66 -8 9 C-8.33 8.01 -8.66 7.02 -9 6 C-7.2421875 5.0234375 -5.484375 4.046875 -3.7265625 3.0703125 C-1.8387386 1.99102726 -1.8387386 1.99102726 0 0 Z " fill="#E7ECF9" transform="translate(109,103)"/>
<path d="M0 0 C2 0.875 2 0.875 3.0625 3.375 C3.371875 4.2 3.68125 5.025 4 5.875 C4.99 6.205 5.98 6.535 7 6.875 C6.67 7.865 6.34 8.855 6 9.875 C4.8944811 8.93909496 3.79064547 8.00120142 2.6875 7.0625 C2.07261719 6.54042969 1.45773438 6.01835938 0.82421875 5.48046875 C-0.85424679 4.00327531 -2.43882034 2.47460869 -4 0.875 C-2 -0.125 -2 -0.125 0 0 Z M6 4.875 C8 5.875 8 5.875 8 5.875 Z " fill="#E1E4FA" transform="translate(106,67.125)"/>
<path d="M0 0 C0 3.15081975 -0.27898465 4.41847698 -2 7 C-4.85796624 8.42898312 -6.13494727 7.9610729 -9.25 7.0625 C-10.1575 6.711875 -11.065 6.36125 -12 6 C-12 5.01 -12 4.02 -12 3 C-11.07767578 3.05220703 -11.07767578 3.05220703 -10.13671875 3.10546875 C-8.92435547 3.14607422 -8.92435547 3.14607422 -7.6875 3.1875 C-6.88699219 3.22230469 -6.08648437 3.25710937 -5.26171875 3.29296875 C-2.52148416 2.93801608 -1.70828921 2.10633718 0 0 Z " fill="#E4E8FA" transform="translate(194,55)"/>
<path d="M0 0 C0.66 0.99 1.32 1.98 2 3 C1.67 3.66 1.34 4.32 1 5 C1.66 5 2.32 5 3 5 C3 4.34 3 3.68 3 3 C3.99 3.33 4.98 3.66 6 4 C5.34 5.32 4.68 6.64 4 8 C2.02 8 0.04 8 -2 8 C-1.125 1.125 -1.125 1.125 0 0 Z " fill="#3137CF" transform="translate(139,103)"/>
<path d="M0 0 C3.1875 -0.3125 3.1875 -0.3125 6 0 C5.34 2.31 4.68 4.62 4 7 C1.69 6.34 -0.62 5.68 -3 5 C-1.875 2.5 -1.875 2.5 0 0 Z " fill="#2532EA" transform="translate(104,45)"/>
<path d="M0 0 C3.97541766 0.56791681 6.80209691 1.53604188 10 4 C10.77734375 6.84765625 10.77734375 6.84765625 10.9375 10.0625 C11.00839844 11.12597656 11.07929687 12.18945312 11.15234375 13.28515625 C11 16 11 16 9 18 C7.79385719 15.58771439 8.05299331 14.35156774 8.25 11.6875 C8.305246 7.86938761 8.18301736 7.23248151 5.6875 4.0625 C3.83925077 2.64407617 1.9385078 1.29233853 0 0 Z " fill="#4A50CC" transform="translate(93,77)"/>
<path d="M0 0 C1.32 0.33 2.64 0.66 4 1 C1.10933941 10.59453303 1.10933941 10.59453303 -2 14 C-2.125 7.375 -2.125 7.375 -1 4 C-0.34 4 0.32 4 1 4 C0.67 2.68 0.34 1.36 0 0 Z " fill="#EAEDFD" transform="translate(131,65)"/>
<path d="M0 0 C0.66 0.66 1.32 1.32 2 2 C0.35 5.96 -1.3 9.92 -3 14 C-3.33 13.01 -3.66 12.02 -4 11 C-4.66 10.67 -5.32 10.34 -6 10 C-5.01 10 -4.02 10 -3 10 C-3.2475 9.46375 -3.495 8.9275 -3.75 8.375 C-4.13553144 4.71245136 -2.13181966 2.84242621 0 0 Z " fill="#E6EAFB" transform="translate(168,65)"/>
<path d="M0 0 C2 3 2 3 1.828125 5.2265625 C1.63734375 6.01804688 1.4465625 6.80953125 1.25 7.625 C1.06953125 8.42164063 0.8890625 9.21828125 0.703125 10.0390625 C0 12 0 12 -2 13 C-2.66 12.67 -3.32 12.34 -4 12 C-2.66666667 8 -1.33333333 4 0 0 Z " fill="#E1E6FB" transform="translate(37,139)"/>
<path d="M0 0 C0.33 0 0.66 0 1 0 C0.67 3.63 0.34 7.26 0 11 C-0.99 11.33 -1.98 11.66 -3 12 C-3.29344873 7.01137151 -3.05887078 4.03770942 0 0 Z " fill="#FDFCEE" transform="translate(56,105)"/>
<path d="M0 0 C0.66 0.66 1.32 1.32 2 2 C0.68 4.64 -0.64 7.28 -2 10 C-2.99 10 -3.98 10 -5 10 C-4.56802365 5.2482602 -3.67230705 3.07999946 0 0 Z " fill="#EAF2FA" transform="translate(8,101)"/>
<path d="M0 0 C0.33 1.32 0.66 2.64 1 4 C-2.63 3.67 -6.26 3.34 -10 3 C-5.78492722 -0.16130459 -4.93928888 -0.3367697 0 0 Z " fill="#2C30E9" transform="translate(67,67)"/>
<path d="M0 0 C0.66 0 1.32 0 2 0 C0.58192622 4.47238653 -1.11304374 8.71146306 -3 13 C-3.66 12.34 -4.32 11.68 -5 11 C-5 7.08045346 -4.17860377 5.26790565 -2 2 C-1.34 2 -0.68 2 0 2 C0 1.34 0 0.68 0 0 Z " fill="#E6EBFC" transform="translate(31,118)"/>
<path d="M0 0 C0.33 0 0.66 0 1 0 C1.30017023 4.16486198 0.45324946 6.65015727 -1.5 10.3125 C-1.9640625 11.19550781 -2.428125 12.07851562 -2.90625 12.98828125 C-3.2671875 13.65214844 -3.628125 14.31601563 -4 15 C-4.66 15 -5.32 15 -6 15 C-4.36041242 9.76727367 -2.61047965 4.84803364 0 0 Z " fill="#DDE2FD" transform="translate(68,72)"/>
<path d="M0 0 C0.33 0 0.66 0 1 0 C1.36601307 7.32026144 1.36601307 7.32026144 -0.3125 10.4375 C-2 12 -2 12 -5 13 C-3.58192622 8.52761347 -1.88695626 4.28853694 0 0 Z " fill="#DFE3FB" transform="translate(127,114)"/>
<path d="M0 0 C0.66 0 1.32 0 2 0 C0.50902342 3.7952131 -1.75700849 5.61042731 -5 8 C-5.66 7.67 -6.32 7.34 -7 7 C-7.625 4.9375 -7.625 4.9375 -8 3 C-5.525 3.495 -5.525 3.495 -3 4 C-3 3.34 -3 2.68 -3 2 C-2.01 2 -1.02 2 0 2 C0 1.34 0 0.68 0 0 Z " fill="#3034C4" transform="translate(186,101)"/>
<path d="M0 0 C2.78637633 4.1795645 1.79562512 6.14668677 1 11 C-0.66666667 11 -2.33333333 11 -4 11 C-3.52269162 9.5410574 -3.04308958 8.08286504 -2.5625 6.625 C-2.29566406 5.81289062 -2.02882812 5.00078125 -1.75390625 4.1640625 C-1 2 -1 2 0 0 Z " fill="#E8EDFD" transform="translate(148,68)"/>
<path d="M0 0 C0.33 2.31 0.66 4.62 1 7 C0.34 7 -0.32 7 -1 7 C-1.5775 6.360625 -2.155 5.72125 -2.75 5.0625 C-5.48382274 2.55649582 -7.36785602 2.33019491 -11 2 C-11 1.67 -11 1.34 -11 1 C-7.27569643 0.30710631 -3.78916254 -0.11144596 0 0 Z " fill="#D1D8F4" transform="translate(117,40)"/>
<path d="M0 0 C1.35714063 3.66427971 0.52286834 5.50636088 -1 9 C-1 9.99 -1 10.98 -1 12 C-1.66 12 -2.32 12 -3 12 C-3.79953138 8.71303767 -4.09658936 7.28976808 -3 4 C-2.34 4 -1.68 4 -1 4 C-0.67 2.68 -0.34 1.36 0 0 Z " fill="#FAFBF1" transform="translate(143,86)"/>
<path d="M0 0 C1.06517032 3.61557813 0.75606317 4.68299179 -1 8 C-1.38290462 9.99110401 -1.72604615 11.99100513 -2 14 C-3.32 14.33 -4.64 14.66 -6 15 C-4.40109514 9.80355921 -2.25861997 4.93387858 0 0 Z " fill="#4146BB" transform="translate(48,84)"/>
<path d="M0 0 C-0.59861742 2.35171131 -1.26924352 4.6859378 -2 7 C-2.99 7.495 -2.99 7.495 -4 8 C-4 6.35 -4 4.7 -4 3 C-5.32 2.34 -6.64 1.68 -8 1 C-5.07175348 0.02391783 -3.04386724 -0.08226668 0 0 Z " fill="#2C35CB" transform="translate(68,71)"/>
<path d="M0 0 C0.99 0.33 1.98 0.66 3 1 C2.26330078 1.58201172 2.26330078 1.58201172 1.51171875 2.17578125 C-0.50725753 4.61211696 -0.30898805 6.06930672 -0.1875 9.1875 C-0.16042969 10.08855469 -0.13335937 10.98960938 -0.10546875 11.91796875 C-0.07066406 12.60503906 -0.03585938 13.29210938 0 14 C-0.66 14 -1.32 14 -2 14 C-2.16873478 12.56274129 -2.33490737 11.12518162 -2.5 9.6875 C-2.5928125 8.88699219 -2.685625 8.08648437 -2.78125 7.26171875 C-3 5 -3 5 -3 2 C-2.01 1.34 -1.02 0.68 0 0 Z " fill="#D3D9F2" transform="translate(180,42)"/>
<path d="M0 0 C0.66 0 1.32 0 2 0 C1.67 1.98 1.34 3.96 1 6 C-1.64 6 -4.28 6 -7 6 C-6.67 4.68 -6.34 3.36 -6 2 C-4.68 2 -3.36 2 -2 2 C-2 2.99 -2 3.98 -2 5 C-1.34 5 -0.68 5 0 5 C0 3.35 0 1.7 0 0 Z " fill="#2B35C8" transform="translate(31,145)"/>
<path d="M0 0 C0.99 0 1.98 0 3 0 C2.71125 0.70125 2.4225 1.4025 2.125 2.125 C0.97866412 5.05452503 -0.02625654 8.00921653 -1 11 C-1.66 11 -2.32 11 -3 11 C-2.32829194 7.1936543 -1.27253436 3.64793184 0 0 Z " fill="#E9EAFC" transform="translate(138,99)"/>
<path d="M0 0 C0.598125 0.350625 1.19625 0.70125 1.8125 1.0625 C1.4825 2.7125 1.1525 4.3625 0.8125 6.0625 C-2.18443138 5.06352287 -3.21459413 4.41119747 -5.1875 2.0625 C-5.1875 1.4025 -5.1875 0.7425 -5.1875 0.0625 C-2.1875 -0.9375 -2.1875 -0.9375 0 0 Z " fill="#2932EF" transform="translate(105.1875,77.9375)"/>
<path d="M0 0 C1.093125 0.226875 2.18625 0.45375 3.3125 0.6875 C3.3125 2.3375 3.3125 3.9875 3.3125 5.6875 C2.6525 5.6875 1.9925 5.6875 1.3125 5.6875 C0.9825 5.0275 0.6525 4.3675 0.3125 3.6875 C-2.00906597 3.28020772 -4.3443787 2.94311323 -6.6875 2.6875 C-4.58035839 -0.41123767 -3.86755884 -0.32775922 0 0 Z " fill="#2A32E4" transform="translate(103.6875,71.3125)"/>
<path d="M0 0 C1.65 0.33 3.3 0.66 5 1 C4.01 1.33 3.02 1.66 2 2 C2 3.65 2 5.3 2 7 C0.35 6.67 -1.3 6.34 -3 6 C-2.34 5.67 -1.68 5.34 -1 5 C-0.34444881 2.47266765 -0.34444881 2.47266765 0 0 Z " fill="#2B2FEB" transform="translate(171,68)"/>
<path d="M0 0 C1.65 0 3.3 0 5 0 C5.33 1.65 5.66 3.3 6 5 C5.67 4.01 5.34 3.02 5 2 C4.401875 2.515625 3.80375 3.03125 3.1875 3.5625 C2.465625 4.036875 1.74375 4.51125 1 5 C0.01 4.67 -0.98 4.34 -2 4 C-1.34 2.68 -0.68 1.36 0 0 Z " fill="#2536CC" transform="translate(43,110)"/>
<path d="M0 0 C0.99 0 1.98 0 3 0 C1.58192622 4.47238653 -0.11304374 8.71146306 -2 13 C-3.18771723 9.57056481 -2.80226223 7.62215325 -1.5625 4.25 C-1.27503906 3.45078125 -0.98757812 2.6515625 -0.69140625 1.828125 C-0.46324219 1.22484375 -0.23507813 0.6215625 0 0 Z " fill="#E2E8FC" transform="translate(123,86)"/>
<path d="M0 0 C-1 3 -1 3 -4 5 C-6.04296875 5.1953125 -6.04296875 5.1953125 -8.1875 5.125 C-10.0746875 5.063125 -10.0746875 5.063125 -12 5 C-12 4.34 -12 3.68 -12 3 C-9.69 3.33 -7.38 3.66 -5 4 C-5 3.34 -5 2.68 -5 2 C-5.66 1.67 -6.32 1.34 -7 1 C-4.53721199 -0.231394 -2.7204945 -0.07159196 0 0 Z " fill="#3E3FC1" transform="translate(116,54)"/>
<path d="M0 0 C2.35302007 2.35302007 2.39392208 3.27435295 2.75 6.5 C2.84796875 7.2940625 2.9459375 8.088125 3.046875 8.90625 C3 11 3 11 1 13 C0.06576355 9.98968256 -0.04449911 9.13349732 1 6 C0.34 5.67 -0.32 5.34 -1 5 C-0.67 3.35 -0.34 1.7 0 0 Z " fill="#D5DBF9" transform="translate(178,81)"/>
<path d="M0 0 C0.99 0 1.98 0 3 0 C3 0.66 3 1.32 3 2 C6.3 2.33 9.6 2.66 13 3 C13 3.33 13 3.66 13 4 C8.71 4 4.42 4 0 4 C0 2.68 0 1.36 0 0 Z " fill="#3839B0" transform="translate(19,148)"/>
<path d="M0 0 C5.61 0.33 11.22 0.66 17 1 C17 1.33 17 1.66 17 2 C12.38 2 7.76 2 3 2 C2.67 2.99 2.34 3.98 2 5 C1.34 3.35 0.68 1.7 0 0 Z " fill="#E5ECFD" transform="translate(53,64)"/>
<path d="M0 0 C0.66 0 1.32 0 2 0 C1.67 1.65 1.34 3.3 1 5 C0.34 5 -0.32 5 -1 5 C-1.33 5.99 -1.66 6.98 -2 8 C-2.66 7.67 -3.32 7.34 -4 7 C-2.92598892 4.08482708 -2.22189824 2.22189824 0 0 Z " fill="#F8FDEF" transform="translate(118,55)"/>
<path d="M0 0 C0.99 0.33 1.98 0.66 3 1 C2.01 2.485 2.01 2.485 1 4 C0.61500109 5.65549531 0.27206865 7.3222433 0 9 C-0.66 9 -1.32 9 -2 9 C-2.6875 6.1875 -2.6875 6.1875 -3 3 C-1.5625 1.125 -1.5625 1.125 0 0 Z " fill="#E2E6FC" transform="translate(100,43)"/>
<path d="M0 0 C0.66 0 1.32 0 2 0 C2 0.99 2 1.98 2 3 C1.34 3 0.68 3 0 3 C-0.0825 3.928125 -0.165 4.85625 -0.25 5.8125 C-1 9 -1 9 -3.0625 10.875 C-4.0215625 11.431875 -4.0215625 11.431875 -5 12 C-3.68938409 7.76570244 -2.05643741 3.92592596 0 0 Z " fill="#DFE3FD" transform="translate(121,128)"/>
<path d="M0 0 C1.41687119 4.25061356 0.19320039 6.71851625 -1 11 C-1.99 11 -2.98 11 -4 11 C-3.52269162 9.5410574 -3.04308958 8.08286504 -2.5625 6.625 C-2.29566406 5.81289062 -2.02882813 5.00078125 -1.75390625 4.1640625 C-1 2 -1 2 0 0 Z " fill="#4241CA" transform="translate(24,137)"/>
<path d="M0 0 C1 3 1 3 1 6 C-0.8125 7.75 -0.8125 7.75 -3 9 C-3.99 8.67 -4.98 8.34 -6 8 C-4.02 5.36 -2.04 2.72 0 0 Z " fill="#D7DEF9" transform="translate(190,98)"/>
<path d="M0 0 C0.33 0 0.66 0 1 0 C1 2.31 1 4.62 1 7 C0.34 7 -0.32 7 -1 7 C-1.33 7.99 -1.66 8.98 -2 10 C-2.66 9.67 -3.32 9.34 -4 9 C-2.68 6.03 -1.36 3.06 0 0 Z " fill="#3C3FD0" transform="translate(125,88)"/>
<path d="M0 0 C0.763125 0.20625 1.52625 0.4125 2.3125 0.625 C0.9925 2.935 -0.3275 5.245 -1.6875 7.625 C-3.6875 4.625 -3.6875 4.625 -3.6875 2.625 C-4.3475 2.295 -5.0075 1.965 -5.6875 1.625 C-2.6875 -0.375 -2.6875 -0.375 0 0 Z " fill="#222ED8" transform="translate(187.6875,77.375)"/>
<path d="M0 0 C1.32 0.33 2.64 0.66 4 1 C4 1.66 4 2.32 4 3 C4.66 3 5.32 3 6 3 C6 3.66 6 4.32 6 5 C6.99 5 7.98 5 9 5 C9 5.66 9 6.32 9 7 C7.68 7 6.36 7 5 7 C5 6.34 5 5.68 5 5 C4.01 5 3.02 5 2 5 C1.34 3.35 0.68 1.7 0 0 Z " fill="#2232D5" transform="translate(174,71)"/>
<path d="M0 0 C2.97 0.33 5.94 0.66 9 1 C7.68 1.33 6.36 1.66 5 2 C4.29875 2.37125 3.5975 2.7425 2.875 3.125 C2.25625 3.41375 1.6375 3.7025 1 4 C0.34 3.67 -0.32 3.34 -1 3 C-0.67 2.01 -0.34 1.02 0 0 Z " fill="#E6E9F8" transform="translate(87,77)"/>
<path d="M0 0 C-0.59927826 3.35595828 -1.84622436 5.37801226 -4 8 C-4.6875 5.6875 -4.6875 5.6875 -5 3 C-3.40083326 0.79162689 -2.76966516 0 0 0 Z " fill="#F9FBF0" transform="translate(137,102)"/>
<path d="M0 0 C0.66 1.32 1.32 2.64 2 4 C3.65 4 5.3 4 7 4 C7.33 4.66 7.66 5.32 8 6 C5.03 5.67 2.06 5.34 -1 5 C-0.67 3.35 -0.34 1.7 0 0 Z " fill="#3C3AAF" transform="translate(167,72)"/>
<path d="M0 0 C1.98 0 3.96 0 6 0 C6 1.33333333 6 2.66666667 6 4 C4.35 4 2.7 4 1 4 C0.67 2.68 0.34 1.36 0 0 Z " fill="#2533D8" transform="translate(56,70)"/>
<path d="M0 0 C-0.66 2.31 -1.32 4.62 -2 7 C-2.99 7 -3.98 7 -5 7 C-5 3 -5 3 -3.625 1.25 C-2 0 -2 0 0 0 Z " fill="#DCE5FB" transform="translate(110,121)"/>
<path d="M0 0 C-0.33 0.99 -0.66 1.98 -1 3 C-4.63 3 -8.26 3 -12 3 C-12 2.67 -12 2.34 -12 2 C-10.37548581 1.66430703 -8.75037083 1.3315204 -7.125 1 C-6.22007813 0.814375 -5.31515625 0.62875 -4.3828125 0.4375 C-2 0 -2 0 0 0 Z " fill="#E7EEFE" transform="translate(100,110)"/>
<path d="M0 0 C1.32 0.33 2.64 0.66 4 1 C3.6875 2.9375 3.6875 2.9375 3 5 C2.01 5.33 1.02 5.66 0 6 C0 4.02 0 2.04 0 0 Z " fill="#FBFEED" transform="translate(149,71)"/>
<path d="M0 0 C1.67542976 0.28604898 3.34385343 0.61781233 5 1 C5.33 1.99 5.66 2.98 6 4 C5.01 4.33 4.02 4.66 3 5 C2.34 4.67 1.68 4.34 1 4 C1 3.34 1 2.68 1 2 C0.34 1.67 -0.32 1.34 -1 1 C-0.67 0.67 -0.34 0.34 0 0 Z " fill="#242EEE" transform="translate(177,70)"/>
<path d="M0 0 C0.33 0.66 0.66 1.32 1 2 C0.67 2.66 0.34 3.32 0 4 C-0.66 4 -1.32 4 -2 4 C-2.33 4.66 -2.66 5.32 -3 6 C-4.98 5.34 -6.96 4.68 -9 4 C-9 3.67 -9 3.34 -9 3 C-7.88625 2.690625 -6.7725 2.38125 -5.625 2.0625 C-2.2054845 1.17673517 -2.2054845 1.17673517 0 0 Z " fill="#E2E4FD" transform="translate(115,56)"/>
<path d="M0 0 C0 0.66 0 1.32 0 2 C-2.64 2 -5.28 2 -8 2 C-8 1.34 -8 0.68 -8 0 C-5.13822943 -1.43088528 -3.06624227 -0.59991697 0 0 Z " fill="#D4D9F7" transform="translate(191,40)"/>
<path d="M0 0 C1.32 0 2.64 0 4 0 C4 0.66 4 1.32 4 2 C3.34 2 2.68 2 2 2 C1.67 3.32 1.34 4.64 1 6 C0.01 5.67 -0.98 5.34 -2 5 C-1.34 3.35 -0.68 1.7 0 0 Z " fill="#EDEBFD" transform="translate(49,113)"/>
<path d="M0 0 C0 1.98 0 3.96 0 6 C-1.32 5.67 -2.64 5.34 -4 5 C-4 3.68 -4 2.36 -4 1 C-2 0 -2 0 0 0 Z " fill="#2B34E9" transform="translate(189,93)"/>
<path d="M0 0 C0.66 0 1.32 0 2 0 C1.67 1.98 1.34 3.96 1 6 C0.34 6 -0.32 6 -1 6 C-1.33 6.99 -1.66 7.98 -2 9 C-1.125 2.25 -1.125 2.25 0 0 Z " fill="#E9F0FE" transform="translate(141,84)"/>
<path d="M0 0 C2.97 0 5.94 0 9 0 C8.34 1.98 7.68 3.96 7 6 C6.67 6 6.34 6 6 6 C6 4.35 6 2.7 6 1 C4.02 1 2.04 1 0 1 C0 0.67 0 0.34 0 0 Z " fill="#353BA0" transform="translate(140,66)"/>
<path d="M0 0 C1.98 0.495 1.98 0.495 4 1 C4 1.99 4 2.98 4 4 C2.35 4 0.7 4 -1 4 C-0.67 2.68 -0.34 1.36 0 0 Z " fill="#2437CC" transform="translate(186,50)"/>
<path d="M0 0 C0.66 0 1.32 0 2 0 C2.33 1.32 2.66 2.64 3 4 C1.02 4.99 1.02 4.99 -1 6 C-0.67 4.02 -0.34 2.04 0 0 Z " fill="#2F36C4" transform="translate(114,112)"/>
<path d="M0 0 C0.66 0.33 1.32 0.66 2 1 C1.60196439 3.88575819 1.20990931 4.82189513 -1.0625 6.75 C-1.701875 7.1625 -2.34125 7.575 -3 8 C-1.125 2.25 -1.125 2.25 0 0 Z " fill="#E0E1FC" transform="translate(131,106)"/>
<path d="M0 0 C0.66 0 1.32 0 2 0 C1.67 1.65 1.34 3.3 1 5 C0.34 5 -0.32 5 -1 5 C-1 5.99 -1 6.98 -1 8 C-1.66 8 -2.32 8 -3 8 C-1.125 1.125 -1.125 1.125 0 0 Z " fill="#383FC1" transform="translate(61,103)"/>
<path d="M0 0 C0 1.65 0 3.3 0 5 C-1.65 4.67 -3.3 4.34 -5 4 C-5 3.01 -5 2.02 -5 1 C-1.125 0 -1.125 0 0 0 Z " fill="#F7FBF4" transform="translate(115,102)"/>
<path d="M0 0 C0.66 0.33 1.32 0.66 2 1 C0.25 6.75 0.25 6.75 -2 9 C-1.125 2.25 -1.125 2.25 0 0 Z " fill="#3F43D0" transform="translate(132,99)"/>
<path d="M0 0 C0.66 1.32 1.32 2.64 2 4 C1.01 5.485 1.01 5.485 0 7 C-0.99 6.67 -1.98 6.34 -3 6 C-2.01 4.02 -1.02 2.04 0 0 Z " fill="#E3E9FE" transform="translate(61,88)"/>
<path d="M0 0 C0.66 0 1.32 0 2 0 C1.50168276 3.68754757 0.89932357 5.60490662 -2 8 C-1.125 1.125 -1.125 1.125 0 0 Z " fill="#2931E9" transform="translate(140,75)"/>
<path d="M0 0 C2.97 0.33 5.94 0.66 9 1 C8.67 1.66 8.34 2.32 8 3 C5.125 3.1875 5.125 3.1875 2 3 C1.34 2.01 0.68 1.02 0 0 Z " fill="#E1E6FC" transform="translate(166,77)"/>
<path d="M0 0 C2.97 0 5.94 0 9 0 C8.67 1.98 8.34 3.96 8 6 C7.690625 5.0409375 7.690625 5.0409375 7.375 4.0625 C6.10461791 1.65074923 6.10461791 1.65074923 2.875 1.25 C1.92625 1.1675 0.9775 1.085 0 1 C0 0.67 0 0.34 0 0 Z " fill="#3B40AC" transform="translate(61,66)"/>
<path d="M0 0 C0.639375 0.2475 1.27875 0.495 1.9375 0.75 C2.2675 1.74 2.5975 2.73 2.9375 3.75 C1.9475 4.41 0.9575 5.07 -0.0625 5.75 C-1.3825 4.1 -2.7025 2.45 -4.0625 0.75 C-2.0625 -0.25 -2.0625 -0.25 0 0 Z " fill="#E8EDFB" transform="translate(195.0625,41.25)"/>
</svg>
